#!OML:ASF H:\GeneralSubjects\Female5\Project 1\Capture day 1\Session 1\Female5.ASF
:FULLY-SPECIFIED
:DEGREES
429
root -7.414 15.869 1.33345 166.233 -81.0833 -158.635
lowerback 3.81507 2.85456 1.04899
upperback -10.5741 3.79776 1.69289
thorax -13.7098 1.65433 0.724925
lowerneck -19.2582 -0.0770495 1.77737
upperneck 28.8097 -0.154461 -3.23789
head 12.8093 -0.507005 -1.62307
rclavicle 1.03368e-014 1.11319e-014
rhumerus -13.7274 26.9123 -76.4696
rradius 62.1864
rwrist -9.27395
rhand -38.4756 -24.1496
rfingers 7.12502
rthumb -11.4979 -53.8142
lclavicle 1.03368e-014 1.11319e-014
lhumerus -17.9999 -4.95874 85.492
lradius 61.7603
lwrist 3.86226
lhand -41.1195 43.8573
lfingers 7.12502
lthumb -14.0468 433.363
rfemur 14.8706 25.78 44.3067
rtibia -8.43173
rfoot -45.4181 -33.2016
rtoes 20.4961
lfemur -25.9836 -36.389 -5.16326
ltibia 3.68227
lfoot -34.3278 -1.64673
ltoes -5.15144
430
root -7.41221 15.8685 1.33471 166.519 -81.0547 -158.922
lowerback 3.80688 2.8588 1.00968
upperback -10.5563 3.7993 1.68746
thorax -13.6856 1.65967 0.740981
lowerneck -19.2841 -0.0478011 1.75549
upperneck 28.6589 -0.105212 -3.21385
head 12.7549 -0.480756 -1.59821
rclavicle 3.24019e-014 2.98177e-014
rhumerus -13.7618 27.089 -76.7133
rradius 62.5277
rwrist -9.63565
rhand -38.4301 -24.422
rfingers 7.12502
rthumb -11.4541 -54.0891
lclavicle 3.24019e-014 2.98177e-014
lhumerus -17.869 -4.9807 86.0253
lradius 62.1142
lwrist 4.64192
lhand -41.0086 44.9953
lfingers 7.12502
lthumb -13.9399 434.508
rfemur 14.8663 25.7217 44.2376
rtibia -8.45194
rfoot -45.0677 -33.4916
rtoes 19.3118
lfemur -26.172 -35.4157 -5.53374
ltibia 4.28887
lfoot -33.367 -0.454629
ltoes -5.50757
431
root -7.41247 15.867 1.33441 166.707 -80.9739 -159.144
lowerback 3.85305 2.89044 1.02788
upperback -10.5456 3.84258 1.64537
thorax -13.6976 1.67594 0.675894
lowerneck -19.2459 -0.0496938 1.5718
upperneck 28.4186 -0.129033 -2.91835
head 12.6492 -0.465341 -1.45043
rclavicle -2.37051e-014 5.96354e-015
rhumerus -13.9775 27.2745 -77.0657
rradius 62.8599
rwrist -10.1388
rhand -38.5411 -24.6724
rfingers 7.12502
rthumb -11.5611 -54.3335
lclavicle -2.37051e-014 5.96354e-015
lhumerus -17.8548 -5.27771 86.4271
lradius 62.4259
lwrist 5.66097
lhand -40.501 46.5263
lfingers 7.12502
lthumb -13.4507 436.072
rfemur 15.1165 26.375 44.5109
rtibia -8.4796
rfoot -44.9051 -34.7757
rtoes 17.3752
lfemur -26.3759 -34.0982 -5.98479
ltibia 5.06373
lfoot -32.0625 0.392174
ltoes -5.46265
432
root -7.41454 15.8631 1.33394 167.083 -80.9022 -159.57
lowerback 3.89497 2.89805 0.979449
upperback -10.5174 3.84868 1.62469
thorax -13.6922 1.68366 0.677276
lowerneck -19.2946 -0.0867869 1.43046
upperneck 28.2349 -0.167625 -2.78794
head 12.5843 -0.475699 -1.37848
rclavicle -1.2424e-014 -1.98785e-016
rhumerus -14.1738 27.4703 -77.3959
rradius 63.1244
rwrist -10.5183
rhand -38.4813 -25.2217
rfingers 7.12502
rthumb -11.5034 -54.8861
lclavicle -1.2424e-014 -1.98785e-016
lhumerus -17.9564 -5.60747 86.7783
lradius 62.731
lwrist 6.75347
lhand -39.973 47.849
lfingers 7.12502
lthumb -12.9417 437.428
rfemur 15.6688 27.7612 45.0981
rtibia -8.53952
rfoot -46.6486 -35.2843
rtoes 18.9792
lfemur -26.6274 -32.7184 -6.53619
ltibia 6.00412
lfoot -30.6178 0.861801
ltoes -5.2745
433
root -7.41955 15.8581 1.33524 167.795 -80.8276 -160.323
lowerback 3.88083 2.88484 0.893338
upperback -10.4765 3.82083 1.60806
thorax -13.6387 1.68006 0.712029
lowerneck -19.4826 -0.0422727 1.52574
upperneck 28.2588 -0.0954855 -2.90734
head 12.6346 -0.449101 -1.43065
rclavicle -2.58917e-014 -1.33186e-014
rhumerus -14.3031 27.7039 -77.669
rradius 63.2527
rwrist -10.7288
rhand -38.2681 -25.1228
rfingers 7.12502
rthumb -11.2979 -54.7985
lclavicle -2.58917e-014 -1.33186e-014
lhumerus -18.0828 -5.86338 87.0533
lradius 62.8892
lwrist 7.73395
lhand -39.3866 48.1194
lfingers 7.12502
lthumb -12.3764 437.733
rfemur 15.8466 27.9144 45.1064
rtibia -8.60826
rfoot -47.2655 -34.9589
rtoes 19.9981
lfemur -26.9347 -31.2189 -7.208
ltibia 7.11893
lfoot -28.9672 0.88501
ltoes -4.88884
434
root -7.42719 15.8522 1.33706 168.806 -80.7206 -161.415
lowerback 3.86611 2.86301 0.763739
upperback -10.4241 3.77826 1.60466
thorax -13.575 1.67514 0.787809
lowerneck -19.6098 0.0391899 1.636
upperneck 28.2715 0.0333176 -3.05674
head 12.6697 -0.400378 -1.48708
rclavicle 4.82053e-015 -1.41137e-014
rhumerus -14.4399 28.1151 -77.9224
rradius 63.3167
rwrist -11.1387
rhand -37.9991 -25.1447
rfingers 7.12502
rthumb -11.0384 -54.8345
lclavicle 4.82053e-015 -1.41137e-014
lhumerus -18.2299 -6.02185 87.2472
lradius 62.9316
lwrist 8.62068
lhand -38.8658 47.9619
lfingers 7.12502
lthumb -11.8742 437.605
rfemur 15.7223 27.0525 44.6356
rtibia -8.61929
rfoot -45.5992 -35.2889
rtoes 17.4055
lfemur -27.2247 -29.6306 -7.96488
ltibia 8.33793
lfoot -27.186 0.66737
ltoes -4.3987
435
root -7.43386 15.8455 1.33836 169.868 -80.5846 -162.648
lowerback 4.01128 2.85052 0.59637
upperback -10.3683 3.75099 1.60504
thorax -13.6118 1.68141 0.879
lowerneck -19.5331 0.0940848 1.77514
upperneck 28.0585 0.122504 -3.22275
head 12.5705 -0.364934 -1.55469
rclavicle 8.15017e-015 2.76311e-014
rhumerus -14.6889 28.4729 -78.2523
rradius 63.3875
rwrist -11.4407
rhand -37.7342 -25.8458
rfingers 7.12502
rthumb -10.7829 -55.549
lclavicle 8.15017e-015 2.76311e-014
lhumerus -18.3256 -6.18477 87.427
lradius 62.8895
lwrist 9.47706
lhand -38.4285 47.7945
lfingers 7.12502
lthumb -11.4526 437.462
rfemur 15.777 26.5708 44.3407
rtibia -8.55565
rfoot -44.7154 -35.184
rtoes 16.3009
lfemur -27.5104 -28.0641 -8.72557
ltibia 9.67153
lfoot -25.445 1.11186
ltoes -4.56489
436
root -7.43984 15.8383 1.33917 169.591 -80.3914 -162.531
lowerback 4.24192 2.86005 0.711817
upperback -10.3283 3.78648 1.60967
thorax -13.7025 1.68696 0.804211
lowerneck -19.4537 0.12781 1.89707
upperneck 27.8413 0.146233 -3.25733
head 12.4676 -0.341856 -1.57928
rclavicle -1.6201e-014 6.75868e-015
rhumerus -15.0893 28.5638 -78.6981
rradius 63.4644
rwrist -11.363
rhand -37.4316 -26.2173
rfingers 7.12502
rthumb -10.491 -55.9355
lclavicle -1.6201e-014 6.75868e-015
lhumerus -18.3473 -6.47964 87.5838
lradius 62.7694
lwrist 10.1363
lhand -38.0578 47.6596
lfingers 7.12502
lthumb -11.095 437.346
rfemur 15.8286 26.2157 44.3335
rtibia -8.42961
rfoot -44.7283 -34.1789
rtoes 17.4495
lfemur -27.9875 -26.3219 -9.20001
ltibia 11.2837
lfoot -23.6011 1.27864
ltoes -5.00071
437
root -7.45397 15.8302 1.34198 168.603 -80.1712 -161.647
lowerback 4.35398 2.86746 1.00422
upperback -10.2918 3.83757 1.65108
thorax -13.7126 1.68341 0.674649
lowerneck -19.43 0.185808 1.98041
upperneck 27.7361 0.20823 -3.26825
head 12.4226 -0.304787 -1.58506
rclavicle -4.96962e-016 -5.76476e-015
rhumerus -15.471 28.7876 -79.0332
rradius 63.5432
rwrist -11.5343
rhand -37.2448 -26.4931
rfingers 7.12502
rthumb -10.3108 -56.2203
lclavicle -4.96962e-016 -5.76476e-015
lhumerus -18.3653 -6.79012 87.7341
lradius 62.588
lwrist 10.5064
lhand -37.9549 48.1356
lfingers 7.12502
lthumb -10.9958 437.828
rfemur 15.7935 25.4613 44.2986
rtibia -8.3721
rfoot -44.0723 -33.3378
rtoes 16.9608
lfemur -28.6092 -24.5437 -9.53692
ltibia 13.1514
lfoot -21.7462 1.15242
ltoes -5.52484
